<?xml version="1.0" encoding="UTF-8" standalone="no"?>
<svg xmlns:rdf="http://www.w3.org/1999/02/22-rdf-syntax-ns#" xmlns="http://www.w3.org/2000/svg" version="1.1" xmlns:cc="http://creativecommons.org/ns#" xmlns:dc="http://purl.org/dc/elements/1.1/" viewBox="0 0 289 335">
<g transform="translate(14.904 -37.407)" stroke="#000" fill="#06f">
<path style="color-rendering:auto;text-decoration-color:black;color:black;isolation:auto;mix-blend-mode:normal;shape-rendering:auto;solid-color:black;block-progression:tb;text-decoration-line:none;text-decoration-style:solid;image-rendering:auto;white-space:normal;text-indent:0;text-transform:none" d="m0.86411 129.91c42.913 74.69 85.822 149.39 128.74 224.09l128.73-224.09zm41.463 24h174.54l-87.27 151.91z"/>
<path style="color-rendering:auto;text-decoration-color:black;color:black;isolation:auto;mix-blend-mode:normal;shape-rendering:auto;solid-color:black;block-progression:tb;text-decoration-line:none;text-decoration-style:solid;image-rendering:auto;white-space:normal;text-indent:0;text-transform:none" d="m129.6 55.817c-14.19 24.696-28.38 49.393-42.566 74.093h27.675l14.887-25.913 57.971 100.91 13.838-24.088-71.8-125zm-56.353 98.093c-24.127 42-48.254 84-72.383 126h86.17c-4.5957-8-9.1914-16-13.787-24h-30.92l58.595-102h-27.675zm142 51-13.835 24.088 15.459 26.912h-115.94l13.787 24h143.62l-43.086-75z"/>
</g>
</svg>
