<?xml version="1.0" encoding="UTF-8" standalone="no"?>
<!DOCTYPE svg PUBLIC "-//W3C//DTD SVG 1.1//EN" "http://www.w3.org/Graphics/SVG/1.1/DTD/svg11.dtd">
<svg width="100%" height="100%" viewBox="0 0 16 16" version="1.1" xmlns="http://www.w3.org/2000/svg" xmlns:xlink="http://www.w3.org/1999/xlink" xml:space="preserve" xmlns:serif="http://www.serif.com/" style="fill-rule:evenodd;clip-rule:evenodd;stroke-linejoin:round;stroke-miterlimit:2;">
    <g transform="matrix(0.25,0,0,0.25,0,0)">
        <path d="M31.943,0C40.931,0 48.513,3.085 54.685,9.257C60.893,15.467 64,23.048 64,32C64,40.991 60.951,48.476 54.855,54.456C48.379,60.819 40.742,64 31.943,64C23.294,64 15.79,60.856 9.429,54.57C3.144,48.284 0,40.762 0,32C0,23.239 3.144,15.658 9.429,9.258C15.601,3.085 23.104,0 31.943,0ZM32.057,5.772C24.781,5.772 18.629,8.325 13.6,13.429C8.38,18.763 5.771,24.954 5.771,32.001C5.771,39.087 8.361,45.221 13.541,50.399C18.722,55.581 24.893,58.17 32.055,58.17C39.178,58.17 45.389,55.563 50.684,50.342C55.713,45.504 58.227,39.39 58.227,31.999C58.227,24.723 55.674,18.534 50.571,13.428C45.467,8.324 39.295,5.772 32.057,5.772ZM40.629,24.057L40.629,37.142L36.973,37.142L36.973,52.684L27.029,52.684L27.029,37.143L23.373,37.143L23.373,24.057C23.373,23.485 23.573,23 23.972,22.6C24.373,22.201 24.859,22 25.429,22L38.573,22C39.106,22 39.583,22.2 40.001,22.6C40.418,23 40.629,23.486 40.629,24.057ZM27.542,15.829C27.542,12.821 29.027,11.315 32,11.315C34.973,11.315 36.457,12.819 36.457,15.829C36.457,18.8 34.971,20.286 32,20.286C29.029,20.286 27.542,18.8 27.542,15.829Z" style="fill-rule:nonzero;"/>
    </g>
</svg>
