<?xml version="1.0" encoding="UTF-8" standalone="no"?>
<!DOCTYPE svg PUBLIC "-//W3C//DTD SVG 1.1//EN" "http://www.w3.org/Graphics/SVG/1.1/DTD/svg11.dtd">
<svg width="100%" height="100%" viewBox="0 0 16 16" version="1.1" xmlns="http://www.w3.org/2000/svg" xmlns:xlink="http://www.w3.org/1999/xlink" xml:space="preserve" xmlns:serif="http://www.serif.com/" style="fill-rule:evenodd;clip-rule:evenodd;stroke-linejoin:round;stroke-miterlimit:2;">
    <g transform="matrix(0.25,0,0,0.25,0,0)">
        <path d="M31.941,0C40.892,0 48.513,3.125 54.798,9.372C57.806,12.381 60.093,15.82 61.655,19.686C63.216,23.553 63.999,27.657 63.999,32C63.999,36.381 63.226,40.486 61.685,44.313C60.142,48.141 57.865,51.523 54.857,54.456C51.734,57.541 48.191,59.904 44.228,61.542C40.267,63.18 36.171,63.999 31.943,63.999C27.715,63.999 23.667,63.191 19.8,61.57C15.934,59.952 12.467,57.609 9.4,54.543C6.333,51.477 4,48.019 2.4,44.171C0.8,40.323 0,36.267 0,32C0,27.771 0.809,23.705 2.428,19.8C4.047,15.895 6.4,12.4 9.485,9.314C15.58,3.106 23.065,0 31.941,0ZM32.057,5.772C24.743,5.772 18.59,8.325 13.599,13.429C11.084,15.982 9.151,18.848 7.799,22.029C6.445,25.21 5.77,28.534 5.77,32.001C5.77,35.43 6.445,38.735 7.799,41.914C9.152,45.097 11.084,47.935 13.599,50.43C16.113,52.926 18.95,54.829 22.114,56.145C25.275,57.459 28.59,58.116 32.057,58.116C35.485,58.116 38.807,57.451 42.03,56.117C45.249,54.782 48.151,52.86 50.743,50.346C55.733,45.47 58.227,39.356 58.227,32.002C58.227,28.459 57.579,25.107 56.284,21.945C54.991,18.783 53.104,15.965 50.63,13.487C45.484,8.344 39.295,5.772 32.057,5.772ZM31.656,26.687L27.369,28.916C26.911,27.965 26.35,27.297 25.684,26.916C25.017,26.536 24.398,26.345 23.826,26.345C20.97,26.345 19.54,28.23 19.54,32.002C19.54,33.716 19.902,35.086 20.625,36.115C21.349,37.144 22.416,37.659 23.826,37.659C25.693,37.659 27.007,36.744 27.77,34.916L31.712,36.916C30.874,38.479 29.712,39.707 28.226,40.602C26.742,41.498 25.103,41.945 23.312,41.945C20.455,41.945 18.149,41.07 16.397,39.316C14.645,37.564 13.769,35.126 13.769,32.003C13.769,28.955 14.655,26.537 16.426,24.746C18.197,22.956 20.435,22.06 23.141,22.06C27.104,22.058 29.941,23.601 31.656,26.687ZM50.113,26.687L45.884,28.916C45.427,27.965 44.864,27.297 44.198,26.916C43.53,26.536 42.891,26.345 42.284,26.345C39.427,26.345 37.997,28.23 37.997,32.002C37.997,33.716 38.36,35.086 39.083,36.115C39.806,37.144 40.872,37.659 42.284,37.659C44.149,37.659 45.464,36.744 46.225,34.916L50.225,36.916C49.35,38.479 48.168,39.707 46.684,40.602C45.198,41.498 43.579,41.945 41.827,41.945C38.931,41.945 36.618,41.07 34.886,39.316C33.15,37.564 32.284,35.126 32.284,32.003C32.284,28.955 33.169,26.537 34.942,24.746C36.712,22.956 38.95,22.06 41.655,22.06C45.617,22.058 48.438,23.601 50.113,26.687Z" style="fill-rule:nonzero;"/>
    </g>
</svg>
