<?xml version="1.0" encoding="UTF-8" standalone="no"?>
<!DOCTYPE svg PUBLIC "-//W3C//DTD SVG 1.1//EN" "http://www.w3.org/Graphics/SVG/1.1/DTD/svg11.dtd">
<svg width="100%" height="100%" viewBox="0 0 16 16" version="1.1" xmlns="http://www.w3.org/2000/svg" xmlns:xlink="http://www.w3.org/1999/xlink" xml:space="preserve" xmlns:serif="http://www.serif.com/" style="fill-rule:evenodd;clip-rule:evenodd;stroke-linejoin:round;stroke-miterlimit:2;">
    <g transform="matrix(0.249996,0,0,0.249996,0,0)">
        <path d="M31.944,0C40.896,0 48.477,3.105 54.688,9.314C60.895,15.486 64.001,23.046 64.001,32C64.001,40.954 60.952,48.457 54.855,54.514C48.418,60.838 40.779,64 31.943,64C23.294,64 15.79,60.857 9.429,54.57C3.144,48.286 0,40.762 0,32.001C0,23.277 3.144,15.716 9.429,9.316C15.64,3.105 23.145,0 31.944,0ZM32.061,5.771C24.785,5.771 18.631,8.342 13.602,13.486C8.382,18.783 5.773,24.954 5.773,32C5.773,39.125 8.363,45.257 13.543,50.4C18.724,55.582 24.895,58.171 32.059,58.171C39.182,58.171 45.391,55.563 50.686,50.343C55.714,45.467 58.229,39.354 58.229,32C58.229,24.688 55.675,18.516 50.572,13.486C45.505,8.342 39.334,5.771 32.061,5.771ZM44.117,24.456L44.117,29.941L20.86,29.941L20.86,24.456L44.117,24.456ZM44.117,34.743L44.117,40.225L20.86,40.225L20.86,34.743L44.117,34.743Z" style="fill-rule:nonzero;"/>
    </g>
</svg>
